<?xml version="1.0" encoding="UTF-8"?>
<svg id="uuid-8e97b6a7-a093-432d-9a09-4c91cf6abaf1" data-name="Layer 1" xmlns="http://www.w3.org/2000/svg" viewBox="0 0 610 575.29">
  <path id="uuid-ad48860a-e2d7-42e3-96a5-e9659d5ac226" data-name="Path 59267" d="m305.17,30.25c128.39,54.64,213.37,145.67,273.94,257.2-57.65,115.83-154.76,207.27-273.83,257.88-118.83-51.16-215.86-142.51-274.09-258.04C88.24,171.25,180.7,86.51,305.17,30.25m4.91,517.38c104.1-42.42,220.57-142.79,270.46-255.37,85.91,187.12-19.67,349.78-270.46,255.37m-10.16,0c-104.11-42.42-220.57-142.79-270.46-255.37-85.91,187.12,19.67,349.78,270.46,255.37m10.16-519.96c104.1,42.43,220.59,142.79,270.48,255.35,85.91-187.12-19.72-349.78-270.48-255.35m-10.16,0C195.82,70.11,79.35,170.46,29.45,283.02-56.46,95.91,49.13-66.76,299.93,27.67" style="fill: #2151a5; fill-rule: evenodd;"/>
  <path id="uuid-68f6f413-3315-41e9-9796-69fdb0e72ba0" data-name="Path 59268" d="m155.83,297.46h215.75c-18.11,25.21-17.59,20.48-49.22,20.48H108.74c23.28,32.28,52.77,66.14,79.16,98.44,40.88,48.82,49.22,59.05,118.47,59.05,31.04,0,50.19,3.94,76.07-12.59,18.29-10.74,33.86-25.54,45.52-43.26,12.95-16.53,25.36-33.07,38.29-49.59,14.23-15.93,27.37-32.79,39.35-50.47-11-14.52-22.74-28.46-35.17-41.76-10.35-11.81-13.98-7.88-31.04-7.88-63.64,0-129.87,1.58-192.99,0,0-.79,13.96-17.32,15.51-18.9,3.62-3.94,26.39-1.58,33.11-1.58h209.52c-.52-3.15-77.56-99.22-87.43-111.87-14.44-19.4-34.22-34.17-56.92-42.52-31.51-4.77-63.5-5.56-95.21-2.37-43.97,6.29-79.68,62.21-105.02,94.49-13.98,18.11-28.98,39.36-43.46,55.9-5.18,6.29-1.49,6.29,4.15,13.42,6.73,7.08,32.08,38.57,35.17,40.93m268.03-74.73c-12.93-19.52-27.1-38.19-42.42-55.9-13.06-19.15-28.74-36.38-46.58-51.18,31.04-14.92,96.25,85.02,112.27,106.29l-23.27.79Zm-263.87,39.38c-18.12-17.32-11.38-14.92,3.1-33.86,8.8-11.81,17.6-22.82,26.85-34.63,17.08-22.05,32.08-50.38,60.54-62.99,30.58-15.31,67.76-5.93,87.43,22.05,18.88,22.37,36.5,45.77,52.77,70.1h-23.79c-11.38-18.11-31.04-40.15-45.02-58.26-18.12-23.63-41.39-31.49-69.33-14.17-12.95,7.08-81.23,96.07-92.61,111.87m27.94,8.67c15.53-21.25,32.08-40.94,49.22-62.99,7.25-10.23,16.03-22.82,24.31-32.28,8.69-9.63,23.53-10.39,33.16-1.7,1.35,1.21,2.55,2.58,3.58,4.07-15.01,7.88-13.42,2.37-27.94,17.32-12.95,12.59-43.46,59.83-58.99,75.58h-23.34Zm96.24-47.24c13.42-24.42,34.16-22.05,48.64,0h-48.64Zm34.16,166.13c19.14-8.67,15.51-1.58,30.53-20.48l45.52-56.68c15.51-18.9,8.28-16.54,35.69-15.75-.52,1.58-64.14,81.89-74.58,95.27-8.97,9.77-24.16,10.41-33.93,1.44-1.25-1.15-2.38-2.43-3.36-3.81m-92.95-44.19l23.86-.79c5.16,4.73,38.78,49.61,45.02,58.28,15.53,23.78,47.22,30.78,71.33,15.75,18.11-10.23,81.74-104.72,94.16-113.36,19.66,14.17,8.28,18.9-3.1,33.86-9.32,11.81-18.63,22.82-27.43,34.63-12.93,17.32-40.35,57.47-60.53,64.57-75.55,25.98-107.11-47.24-143.31-92.91m58.98-1.58h49.22c-11.93,24.4-37.29,22.84-49.22,0m-115.89,1.58l23.28-.79c5.18,4.73,35.71,47.25,42.94,55.9,13.56,19.14,29.37,36.59,47.09,51.97-30,14.92-98.31-87.39-113.36-107.08" style="fill: #fff; fill-rule: evenodd;"/>
</svg>