<svg xmlns="http://www.w3.org/2000/svg" width="312.071" height="294.317" viewBox="0 0 312.071 294.317">
  <g id="Group_38139" data-name="Group 38139" transform="translate(-897.929 -171.921)">
    <path id="Path_59298" data-name="Path 59298" d="M156.12,15.475C221.8,43.42,265.275,90,296.262,147.057c-31.482,61.794-78.811,105.03-140.088,131.93C93.782,251.326,45.653,205.988,15.951,147,45.131,87.614,92.438,44.285,156.12,15.475m2.509,264.687c53.261-21.7,112.845-73.048,138.373-130.646,43.955,95.73-10.062,178.954-138.373,130.646m-5.192,0c-53.255-21.7-112.845-73.048-138.373-130.646-43.944,95.73,10.068,178.954,138.373,130.646m5.192-266.01C211.889,35.85,271.474,87.206,297,144.8,340.957,49.069,286.94-34.15,158.629,14.153m-5.192,0C100.182,35.85,40.592,87.206,15.064,144.8-28.88,49.069,25.131-34.15,153.437,14.153" transform="translate(897.929 171.92)" fill="#fff" fill-rule="evenodd"/>
    <path id="Path_59299" data-name="Path 59299" d="M34.308,114.2h110.38c-9.262,12.887-9,10.47-25.147,10.47H10.222c11.912,16.516,27,33.838,40.5,50.355C71.635,200,75.869,205.237,111.334,205.237c15.885,0,25.681,2.019,38.916-6.443,11.907-7.249,14.291-10.879,23.292-22.154,6.617-8.457,12.968-16.919,19.586-25.381,5.3-6.443,16.674-19.33,20.119-25.779-2.117-4.027-14.3-16.914-18-21.349-5.3-6.041-7.145-4.027-15.88-4.027-32.559,0-66.436.805-98.728,0,0-.4,7.145-8.86,7.94-9.665,1.85-2.014,13.5-.805,16.941-.805h107.2c-.261-1.611-39.7-50.757-44.733-57.2-8.734-10.47-16.146-16.919-29.115-21.752-7.94-2.819-39.171-2.416-48.7-1.208C67.662,12.694,49.4,41.291,36.431,57.808c-7.151,9.262-14.824,20.141-22.236,28.6-2.65,3.222-.795,3.222,2.117,6.846,3.439,3.624,16.413,19.738,18,20.946M171.424,75.935c-4.5-7.651-15.885-21.752-21.708-28.6C139.66,34.445,138.6,32.029,125.9,21.151c15.88-7.651,49.234,43.5,57.435,54.382ZM36.431,96.076c-9.268-8.86-5.828-7.651,1.584-17.322,4.5-6.041,9-11.684,13.768-17.725,8.734-11.276,16.408-25.779,30.97-32.222,17.2-7.657,33.087-3.227,44.733,11.276,8.207,10.476,21.175,25.784,27,35.852H142.3c-5.823-9.262-15.88-20.543-23.025-29.811C110.012,34.043,98.1,30.016,83.808,38.875c-6.617,3.63-41.555,49.147-47.378,57.2m14.291,4.43c7.94-10.873,16.413-20.946,25.147-32.222,3.706-5.235,8.207-11.684,12.44-16.516,4.767-5.241,15.352-5.643,18.8,1.208-7.679,4.027-6.884,1.208-14.3,8.86-6.617,6.449-22.236,30.617-30.176,38.671ZM99.955,76.338c6.884-12.484,17.469-11.281,24.881,0Zm17.469,84.993c9.8-4.43,7.94-.805,15.618-10.47l23.292-29.006c7.94-9.665,4.234-8.457,18.263-8.054-.261.805-32.821,41.892-38.116,48.738-4.762,6.046-15.613,4.832-19.058-1.208M69.779,138.774l12.179-.4c2.645,2.416,19.852,25.381,23.025,29.811,9.8,12.887,23.3,15.3,36.527,8.054,9.268-5.235,41.822-53.576,48.178-58.006,10.057,7.249,4.234,9.665-1.589,17.322-4.767,6.041-9.529,11.684-14.029,17.725-6.617,8.86-20.647,29.4-30.97,33.027-38.644,13.295-54.79-24.168-73.32-47.53m30.176-.805H125.1c-6.09,12.489-19.058,11.684-25.147,0m-59.29.805,11.912-.4c2.645,2.416,18.263,24.168,21.969,28.6,9.79,12.489,12.968,16.919,24.086,26.59-15.352,7.651-50.295-44.717-57.968-54.784" transform="translate(943.334 209.901)" fill="#f8f8f8" fill-rule="evenodd"/>
  </g>
</svg>
